<svg width="380" height="381" viewBox="0 0 380 381" fill="none" xmlns="http://www.w3.org/2000/svg">
<path fill-rule="evenodd" clip-rule="evenodd" d="M323.468 75.3364C348.573 100.442 365.164 127.234 373.241 155.714C381.776 184.176 381.517 212.624 372.464 241.056C363.632 269.708 346.523 296.726 321.139 322.111C295.754 347.496 268.735 364.605 240.083 373.437C211.888 382.252 183.56 382.392 155.097 373.858C153.347 373.324 151.602 372.757 149.863 372.158C123.778 363.171 98.9675 346.909 75.4314 323.373L16.4732 264.415C-4.36839 243.573 -4.39338 209.798 16.3982 188.925C16.4232 188.9 16.4482 188.875 16.4733 188.85L188.945 16.378C188.97 16.3532 188.995 16.3285 189.02 16.3038C209.863 -4.45948 243.573 -4.46387 264.422 16.2905C264.452 16.3197 264.481 16.3488 264.51 16.3781L323.468 75.3364ZM103.535 295.269C133.265 324.999 162.956 340.674 195.436 339.465C228.153 338.02 259.813 321.995 290.418 291.39C321.259 260.549 337.411 228.541 338.874 195.366C340.557 162.412 325.23 132.594 295.72 103.084C288.1 95.4644 275.745 95.4644 268.125 103.084L103.535 267.674C95.9153 275.295 95.9153 287.649 103.535 295.269ZM105.108 154.82C112.919 147.01 125.582 147.01 133.392 154.82C141.203 162.631 141.203 175.294 133.392 183.104L76.8239 239.673C69.0134 247.483 56.3501 247.483 48.5396 239.673C40.7291 231.862 40.7291 219.199 48.5396 211.389L105.108 154.82Z" fill="#FF6069"/>
</svg>
